<svg width="18" height="18" viewBox="0 0 18 18" fill="none" xmlns="http://www.w3.org/2000/svg">
<path d="M14.9999 3H2.99996C2.40322 3 1.83093 3.23705 1.40897 3.65901C0.98702 4.08096 0.749969 4.65325 0.749969 5.24999V12.7499C0.749969 13.3467 0.98702 13.919 1.40897 14.3409C1.83093 14.7629 2.40322 14.9999 2.99996 14.9999H14.9999C15.5966 14.9999 16.1689 14.7629 16.5909 14.3409C17.0128 13.919 17.2499 13.3467 17.2499 12.7499V5.24999C17.2499 4.65325 17.0128 4.08096 16.5909 3.65901C16.1689 3.23705 15.5966 3 14.9999 3ZM15.7499 12.5624L12.0749 9.26247L15.7499 6.68998V12.5624ZM2.24996 6.68998L5.92494 9.26247L2.24996 12.5624V6.68998ZM7.18493 10.1475L8.57242 11.115C8.69797 11.202 8.84712 11.2487 8.99992 11.2487C9.15272 11.2487 9.30187 11.202 9.42742 11.115L10.8149 10.1475L14.5649 13.4999H3.44995L7.18493 10.1475ZM2.99996 4.49999H14.9999C15.1392 4.50111 15.2754 4.54099 15.3933 4.61517C15.5112 4.68935 15.6061 4.7949 15.6674 4.91999L8.99992 9.58496L2.33246 4.91999C2.39374 4.7949 2.48865 4.68935 2.60655 4.61517C2.72444 4.54099 2.86067 4.50111 2.99996 4.49999Z" fill="#F5993C"/>
</svg>
