<svg width="18" height="18" viewBox="0 0 18 18" fill="none" xmlns="http://www.w3.org/2000/svg">
<g clip-path="url(#clip0_0_181)">
<path d="M15.8177 1.00949H2.01123C1.35009 1.00949 0.814232 1.52897 0.814232 2.17012V16.0482C0.814232 16.6894 1.35027 17.2094 2.01123 17.2094H15.8177C16.4788 17.2094 17.014 16.6892 17.014 16.0482V2.17012C17.014 1.52915 16.4788 1.00949 15.8177 1.00949ZM5.7255 14.5699H3.27788V7.25581H5.7255V14.5699ZM4.50187 6.25664H4.48549C3.6647 6.25664 3.13262 5.69522 3.13262 4.99251C3.13262 4.27557 3.68036 3.72945 4.51735 3.72945C5.35453 3.72945 5.8695 4.27539 5.8857 4.99251C5.8857 5.6954 5.35471 6.25664 4.50187 6.25664ZM14.5487 14.5699H12.1018V10.6567C12.1018 9.6732 11.7472 9.00234 10.8623 9.00234C10.1853 9.00234 9.78358 9.45504 9.60718 9.8919C9.54166 10.0481 9.52564 10.2663 9.52564 10.4845V14.5697H7.0791C7.0791 14.5697 7.11114 7.94161 7.0791 7.25563H9.52582V8.29261C9.85072 7.79437 10.431 7.08355 11.7306 7.08355C13.3411 7.08355 14.5487 8.12827 14.5487 10.3759V14.5699ZM9.50998 8.31583C9.5143 8.30899 9.52006 8.30071 9.52582 8.29279V8.31583H9.50998Z" fill="#313131"/>
</g>
<defs>
<clipPath id="clip0_0_181">
<rect width="17.6" height="17.6" fill="white" transform="scale(1.02272)"/>
</clipPath>
</defs>
</svg>
