<svg width="17" height="17" viewBox="0 0 17 17" fill="none" xmlns="http://www.w3.org/2000/svg">
<path d="M16.15 8.075C16.1529 9.19689 15.8908 10.3036 15.385 11.305C14.7853 12.505 13.8633 13.5143 12.7223 14.2199C11.5814 14.9255 10.2665 15.2995 8.92501 15.3C7.80312 15.3029 6.69641 15.0408 5.69502 14.535L0.850031 16.15L2.46503 11.305C1.95922 10.3036 1.6971 9.19689 1.70003 8.075C1.70055 6.7335 2.07455 5.41864 2.78014 4.27768C3.48573 3.13673 4.49504 2.21475 5.69502 1.61502C6.69641 1.10922 7.80312 0.847099 8.92501 0.850024H9.35001C11.1217 0.947767 12.7951 1.69557 14.0498 2.95025C15.3044 4.20493 16.0522 5.87831 16.15 7.65001V8.075Z" stroke="white" stroke-width="1.69335" stroke-linecap="round" stroke-linejoin="round"/>
</svg>
