<svg width="19" height="19" viewBox="0 0 19 19" fill="none" xmlns="http://www.w3.org/2000/svg">
<g clip-path="url(#clip0_0_247)">
<path d="M10.6663 9.05589L10.5529 9.00551H10.3466H10.1989L10.0559 9.32718L10.055 9.32911L10.6663 9.05589ZM10.6663 9.05589L10.4181 9.16623L10.6008 9.57753L10.6663 9.05589ZM10.4003 9.72482L10.055 9.57136L9.96513 9.53141L9.87917 9.72482H10.4003ZM10.4003 9.72482H10.055V10.1206M10.4003 9.72482L10.055 10.1206M10.055 10.1206L10.0559 10.1225L10.055 10.1206ZM10.5583 9.96794L10.4181 10.2834L10.5583 9.96794ZM10.5583 9.96794V10.3458V10.4418V10.4441V9.96794ZM10.6663 9.05589L10.553 9.00551L10.6663 9.05589Z" fill="black" stroke="#F97316" stroke-width="1.4"/>
<path d="M3.33099 15.1124V6.78265C3.33099 6.58939 3.4448 6.41427 3.6214 6.33578L10.4677 3.29298C10.5942 3.23679 10.7384 3.23679 10.8649 3.29298L17.7112 6.33578C17.8878 6.41427 18.0016 6.58939 18.0016 6.78265V15.1124C18.0016 15.3057 17.8878 15.4808 17.7112 15.5593L10.8649 18.6021C10.7384 18.6582 10.5942 18.6582 10.4677 18.6021L3.6214 15.5593C3.4448 15.4808 3.33099 15.3057 3.33099 15.1124Z" stroke="#F97316" stroke-width="1.4" stroke-linecap="round" stroke-linejoin="round"/>
<path d="M6.99864 4.83486L14.0435 7.96592C14.2202 8.04441 14.3339 8.21954 14.3339 8.41279V11.3551" stroke="#F97316" stroke-width="1.4" stroke-linecap="round" stroke-linejoin="round"/>
</g>
<defs>
<clipPath id="clip0_0_247">
<rect width="18.49" height="18.49" fill="white" transform="scale(1.02758)"/>
</clipPath>
</defs>
</svg>
