<svg width="19" height="19" viewBox="0 0 19 19" fill="none" xmlns="http://www.w3.org/2000/svg">
<path d="M3.62574 16.0943V2.90565C3.62574 2.33602 4.25474 1.99276 4.73345 2.29891L15.0424 8.89324C15.4859 9.17713 15.4859 9.82283 15.0424 10.1067L4.73345 16.7011C4.25474 17.0072 3.62574 16.6639 3.62574 16.0943Z" fill="#313131"/>
<path d="M3.904 16.0945C3.904 15.8347 3.904 15.5731 3.904 15.3133C3.904 14.6509 3.904 13.9885 3.904 13.3261C3.904 12.4262 3.904 11.5263 3.904 10.6283C3.904 9.66343 3.904 8.69858 3.904 7.73189C3.904 6.87095 3.904 6.01001 3.904 5.14722C3.904 4.55903 3.904 3.97271 3.904 3.38452C3.904 3.24722 3.904 3.10806 3.904 2.97075C3.904 2.95034 3.904 2.92808 3.904 2.90767C3.904 2.89839 3.904 2.89468 3.904 2.88169C3.904 2.86499 3.90586 2.85015 3.90772 2.83345C3.904 2.89282 3.90586 2.84273 3.90957 2.82603C3.91885 2.79263 3.92813 2.75923 3.9374 2.72769C3.91885 2.78335 3.93184 2.73696 3.94111 2.72212C3.9541 2.69986 3.96524 2.67759 3.98008 2.65532C3.9875 2.64234 3.99678 2.6312 4.0042 2.62007C3.9708 2.66646 3.99307 2.63491 4.00234 2.62564C4.02832 2.59966 4.05244 2.57554 4.08027 2.55142C4.03574 2.59038 4.06914 2.55884 4.08399 2.54956C4.09883 2.54028 4.11367 2.53101 4.13037 2.52173C4.14336 2.51431 4.15635 2.50874 4.16934 2.50132C4.22315 2.47163 4.12852 2.51245 4.18232 2.49575C4.21758 2.48648 4.25098 2.47534 4.28623 2.46792C4.34932 2.45122 4.24912 2.46236 4.28809 2.46792C4.30479 2.46978 4.3252 2.46607 4.3419 2.46607C4.35674 2.46607 4.37158 2.46607 4.38643 2.46792C4.39014 2.46792 4.45879 2.48091 4.41611 2.46978C4.37158 2.45864 4.44395 2.4772 4.4458 2.4772C4.46807 2.48277 4.49033 2.49019 4.51074 2.49761C4.55899 2.51245 4.52002 2.50132 4.50889 2.49575C4.53115 2.50689 4.55156 2.51802 4.57197 2.52915C4.57939 2.53286 4.58682 2.53843 4.59238 2.54214C4.59424 2.544 4.59609 2.544 4.59795 2.54585C4.62393 2.56255 4.65176 2.57925 4.67774 2.59595C4.8169 2.68501 4.9542 2.77222 5.09336 2.86128C5.6333 3.2064 6.1751 3.55337 6.71504 3.89849C7.47578 4.38648 8.23838 4.87261 8.99912 5.3606C9.80625 5.87642 10.6134 6.39409 11.4224 6.90991C12.1182 7.35523 12.8121 7.79868 13.5079 8.24399C13.9217 8.50933 14.3354 8.77466 14.7511 9.03813C14.7919 9.06411 14.8309 9.09009 14.8717 9.11421C14.881 9.11978 14.8902 9.12534 14.8995 9.13091C14.9014 9.13091 14.9032 9.13276 14.9032 9.13276C14.9162 9.14204 14.9311 9.15132 14.944 9.1606C14.9014 9.1272 14.9422 9.1606 14.9515 9.16987C14.97 9.19028 14.9886 9.20884 15.0071 9.22739C15.0183 9.23853 15.0294 9.26821 15.0053 9.22554C15.0127 9.23853 15.022 9.24966 15.0294 9.26265C15.0405 9.2812 15.0498 9.30161 15.0609 9.32202C15.0684 9.33687 15.0739 9.36841 15.0591 9.31646C15.0702 9.35171 15.0813 9.38511 15.0906 9.42222C15.0943 9.43706 15.0962 9.45005 15.098 9.46489C15.0869 9.39438 15.0962 9.46118 15.0962 9.47788C15.0962 9.49829 15.0869 9.60776 15.098 9.53354C15.0925 9.5688 15.0851 9.60591 15.0739 9.63931C15.0702 9.65415 15.0646 9.66714 15.0591 9.68013C15.0776 9.62261 15.0646 9.66899 15.0554 9.68384C15.0461 9.70054 15.0387 9.71724 15.0275 9.73208C15.022 9.7395 14.9793 9.79888 15.0183 9.74878C14.9941 9.77847 14.9663 9.80444 14.9385 9.83228C14.9311 9.8397 14.8977 9.86567 14.9385 9.83413C14.9236 9.84526 14.9144 9.85083 14.8977 9.86196C14.8958 9.86196 14.8958 9.86382 14.8939 9.86382C14.8865 9.86938 14.8772 9.87495 14.8698 9.87866C14.5544 10.0809 14.239 10.2813 13.9235 10.4835C13.2871 10.8899 12.6507 11.2981 12.0143 11.7044C11.2145 12.2147 10.4167 12.7268 9.61699 13.2371C8.83213 13.7399 8.04541 14.2427 7.26055 14.7456C6.64639 15.1389 6.03223 15.5323 5.41807 15.9238C5.14346 16.1 4.8707 16.2782 4.59424 16.4507C4.56455 16.4693 4.53486 16.486 4.50332 16.5027C4.54971 16.4786 4.51631 16.4971 4.50518 16.5008C4.48662 16.5064 4.46807 16.512 4.44951 16.5175C4.43096 16.5231 4.4124 16.5249 4.39385 16.5305C4.44395 16.5157 4.42168 16.5287 4.40127 16.5287C4.36416 16.5305 4.32891 16.5305 4.2918 16.5287C4.23984 16.5268 4.28994 16.5287 4.30108 16.5305C4.28066 16.5268 4.2584 16.5231 4.23799 16.5175C4.21943 16.5138 4.13965 16.4841 4.16934 16.4971C4.19902 16.5101 4.12109 16.4711 4.10625 16.4619C4.09141 16.4526 4.07656 16.4396 4.06172 16.4322C4.02647 16.4155 4.1044 16.4749 4.05801 16.4285C4.03203 16.4025 4.00606 16.3784 3.98193 16.3505C4.0209 16.3932 3.97451 16.3375 3.96152 16.319C3.95039 16.3004 3.94111 16.28 3.92998 16.2615C3.92256 16.2466 3.91885 16.2169 3.93184 16.267C3.92256 16.2299 3.90957 16.1947 3.90029 16.1576C3.89658 16.1427 3.89844 16.1075 3.90029 16.1613C3.90586 16.1427 3.904 16.1186 3.904 16.0945C3.90215 15.9498 3.77783 15.8087 3.62568 15.8162C3.47725 15.8236 3.34551 15.9386 3.34736 16.0945C3.35293 16.4619 3.55332 16.8163 3.88916 16.9814C4.20645 17.1373 4.57383 17.128 4.87627 16.9406C4.94492 16.8979 5.01357 16.8534 5.08037 16.8088C5.53125 16.5212 5.98213 16.2318 6.43301 15.9442C7.1585 15.4803 7.88398 15.0165 8.60947 14.5526C9.43144 14.0256 10.2553 13.5005 11.0772 12.9736C11.8269 12.4949 12.5765 12.0143 13.3261 11.5356C13.8308 11.2127 14.3373 10.8899 14.842 10.5652C14.9478 10.4984 15.0535 10.4297 15.1593 10.3629C15.2595 10.298 15.3541 10.2238 15.4283 10.1292C15.6714 9.823 15.7159 9.41665 15.5508 9.06226C15.4487 8.84517 15.2669 8.70786 15.0739 8.58355C14.9255 8.48892 14.7752 8.39243 14.6268 8.2978C14.0608 7.93599 13.4949 7.57417 12.9309 7.21235C12.1516 6.71323 11.3704 6.21411 10.5911 5.71499C9.77099 5.19175 8.95273 4.66665 8.13262 4.14341C7.44795 3.70552 6.76328 3.26763 6.07861 2.82974C5.70381 2.59038 5.33086 2.35103 4.95606 2.11167C4.70186 1.94839 4.41982 1.86489 4.11553 1.93355C3.64609 2.03931 3.34736 2.47163 3.34551 2.93921C3.34551 3.30103 3.34551 3.66099 3.34551 4.0228C3.34551 4.76499 3.34551 5.50718 3.34551 6.24937C3.34551 7.19194 3.34551 8.13267 3.34551 9.07524C3.34551 10.0419 3.34551 11.0105 3.34551 11.9772C3.34551 12.7955 3.34551 13.6137 3.34551 14.4338C3.34551 14.9237 3.34551 15.4117 3.34551 15.9015C3.34551 15.9665 3.34551 16.0314 3.34551 16.0982C3.34551 16.2429 3.47354 16.3839 3.62383 16.3765C3.77598 16.3654 3.904 16.2503 3.904 16.0945Z" fill="#313131"/>
</svg>
