<svg width="19" height="19" viewBox="0 0 19 19" fill="none" xmlns="http://www.w3.org/2000/svg">
<path d="M8.20595 1.29453C8.90027 0.53219 10.0997 0.53219 10.794 1.29453L11.6868 2.27487C12.0377 2.66016 12.542 2.86905 13.0626 2.84472L14.3871 2.78282C15.417 2.73468 16.2653 3.58287 16.2171 4.61286L16.1552 5.93737C16.1309 6.45791 16.3397 6.96223 16.7251 7.31311L17.7054 8.2059C18.4678 8.90022 18.4678 10.0997 17.7054 10.794L16.7251 11.6868C16.3397 12.0376 16.1309 12.5419 16.1552 13.0625L16.2171 14.387C16.2653 15.417 15.417 16.2652 14.3871 16.2171L13.0626 16.1551C12.542 16.1308 12.0377 16.3397 11.6868 16.725L10.794 17.7053C10.0997 18.4677 8.90027 18.4677 8.20595 17.7053L7.31316 16.725C6.96228 16.3397 6.45796 16.1308 5.93742 16.1551L4.61291 16.2171C3.58292 16.2652 2.73473 15.417 2.78287 14.387L2.84477 13.0625C2.8691 12.5419 2.66021 12.0376 2.27492 11.6868L1.29458 10.794C0.53224 10.0997 0.53224 8.90022 1.29458 8.2059L2.27492 7.31311C2.66021 6.96223 2.8691 6.45791 2.84477 5.93737L2.78287 4.61286C2.73473 3.58287 3.58292 2.73468 4.61291 2.78282L5.93742 2.84472C6.45796 2.86905 6.96228 2.66016 7.31316 2.27487L8.20595 1.29453Z" stroke="#F97316" stroke-width="1.4"/>
<path d="M6.87463 9.5001L8.62487 11.2503L12.1254 7.74986" stroke="#F97316" stroke-width="1.4" stroke-linecap="round" stroke-linejoin="round"/>
</svg>
