<svg width="21" height="21" viewBox="0 0 21 21" fill="none" xmlns="http://www.w3.org/2000/svg">
<g clip-path="url(#clip0_0_224)">
<path d="M14.0345 15.0054L14.7376 16.6134C14.7376 16.6134 17.9014 17.3273 17.9014 19.0254C17.9014 20.2315 16.4952 20.2315 16.4952 20.2315H12.7455L10.8999 19.142" stroke="#F97316" stroke-width="1.6" stroke-linecap="round" stroke-linejoin="round"/>
<path d="M9.81684 15.0054L9.11376 16.6134C9.11376 16.6134 5.94989 17.3273 5.94989 19.0254C5.94989 20.2315 7.35605 20.2315 7.35605 20.2315H9.05517L10.9008 19.142L13.1565 17.6169" stroke="#F97316" stroke-width="1.6" stroke-linecap="round" stroke-linejoin="round"/>
<path d="M4.54303 15.81C4.54303 15.81 6.30074 15.4081 7.35536 15.0061C8.40999 9.37796 11.5738 9.77996 11.9254 9.77996C12.277 9.77996 15.4408 9.37796 16.4954 15.0061C17.55 15.4081 19.3078 15.81 19.3078 15.81" stroke="#F97316" stroke-width="1.6" stroke-linecap="round" stroke-linejoin="round"/>
<path d="M11.9248 8.02913C12.8308 8.02913 13.5653 7.24872 13.5653 6.28605C13.5653 5.32337 12.8308 4.54297 11.9248 4.54297C11.0187 4.54297 10.2842 5.32337 10.2842 6.28605C10.2842 7.24872 11.0187 8.02913 11.9248 8.02913Z" stroke="#F97316" stroke-width="1.6" stroke-linecap="round" stroke-linejoin="round"/>
</g>
<defs>
<clipPath id="clip0_0_224">
<rect width="21" height="21" fill="white"/>
</clipPath>
</defs>
</svg>
