<svg width="18" height="18" viewBox="0 0 18 18" fill="none" xmlns="http://www.w3.org/2000/svg">
<path d="M14.5799 9.74978C14.4149 9.74978 14.2424 9.69728 14.0774 9.65978C13.7433 9.58615 13.415 9.48839 13.095 9.36728C12.747 9.24071 12.3646 9.24728 12.0212 9.38574C11.6778 9.5242 11.3978 9.78476 11.235 10.1173L11.07 10.4548C10.3395 10.0484 9.66821 9.54371 9.07498 8.95479C8.48606 8.36155 7.98135 7.69029 7.57498 6.9598L7.88998 6.7498C8.2225 6.58699 8.48306 6.30695 8.62152 5.96357C8.75998 5.62019 8.76655 5.23774 8.63998 4.88981C8.52089 4.56913 8.42318 4.24091 8.34748 3.90731C8.30998 3.74231 8.27998 3.56981 8.25748 3.39732C8.1664 2.86903 7.8897 2.39063 7.4772 2.04825C7.0647 1.70588 6.54351 1.52203 6.00749 1.52983H3.7575C3.43428 1.52679 3.1142 1.59344 2.81904 1.72522C2.52389 1.85701 2.2606 2.05085 2.04709 2.29353C1.83358 2.53622 1.67487 2.82206 1.58176 3.1316C1.48865 3.44114 1.46333 3.76711 1.50752 4.08731C1.90707 7.22933 3.34203 10.1487 5.58573 12.3842C7.82944 14.6198 10.754 16.0441 13.8974 16.4322H14.1824C14.7355 16.4331 15.2695 16.2301 15.6824 15.8622C15.9197 15.65 16.1092 15.3899 16.2385 15.099C16.3678 14.8081 16.4339 14.4931 16.4324 14.1748V11.9248C16.4232 11.4038 16.2335 10.9022 15.8957 10.5055C15.5578 10.1089 15.0928 9.84175 14.5799 9.74978ZM14.9549 14.2498C14.9548 14.3562 14.932 14.4615 14.888 14.5585C14.8441 14.6555 14.7799 14.742 14.6999 14.8123C14.6161 14.8846 14.5181 14.9387 14.4122 14.9709C14.3063 15.0032 14.1949 15.013 14.0849 14.9998C11.2761 14.6396 8.66715 13.3546 6.66953 11.3475C4.6719 9.34035 3.39931 6.7253 3.05251 3.91481C3.04057 3.80495 3.05103 3.69381 3.08326 3.58811C3.11549 3.4824 3.16881 3.38433 3.24001 3.29982C3.31029 3.21982 3.3968 3.1557 3.49379 3.11173C3.59078 3.06776 3.69602 3.04495 3.8025 3.04482H6.05249C6.2269 3.04094 6.39721 3.09798 6.5341 3.20612C6.67099 3.31426 6.7659 3.46674 6.80249 3.63731C6.83249 3.84231 6.86999 4.04481 6.91499 4.24481C7.00163 4.64017 7.11693 5.02869 7.25999 5.4073L6.20999 5.8948C6.12021 5.93599 6.03946 5.99451 5.97236 6.067C5.90526 6.13948 5.85314 6.22451 5.819 6.3172C5.78485 6.40988 5.76935 6.5084 5.77338 6.60709C5.77741 6.70578 5.8009 6.80271 5.84249 6.8923C6.92189 9.20435 8.78041 11.0629 11.0925 12.1423C11.2751 12.2173 11.4799 12.2173 11.6625 12.1423C11.756 12.1088 11.842 12.0571 11.9153 11.9902C11.9887 11.9232 12.0481 11.8423 12.09 11.7523L12.555 10.7023C12.9427 10.8409 13.3384 10.9561 13.7399 11.0473C13.9399 11.0923 14.1424 11.1298 14.3474 11.1598C14.518 11.1964 14.6705 11.2913 14.7786 11.4282C14.8868 11.5651 14.9438 11.7354 14.9399 11.9098L14.9549 14.2498Z" fill="#F5993C"/>
</svg>
