<svg width="26" height="23" viewBox="0 0 26 23" fill="none" xmlns="http://www.w3.org/2000/svg">
<path d="M1.53886 21.9794L1.25633 20.8015C0.164056 16.2478 2.97016 11.6708 7.52391 10.5785" stroke="white" stroke-width="2" stroke-linecap="round" stroke-linejoin="round"/>
<path d="M15.6268 9.02544C16.1836 8.01405 17.4897 7.70078 18.4448 8.34951C18.9275 8.67743 19.5312 8.77316 20.0917 8.61071C21.2006 8.28929 22.3457 8.99135 22.5623 10.1254C22.6717 10.6986 23.0309 11.1931 23.5421 11.4746C24.5535 12.0315 24.8668 13.3376 24.2181 14.2926C23.8902 14.7754 23.7944 15.3791 23.9569 15.9395C24.2783 17.0484 23.5762 18.1936 22.4422 18.4101C21.869 18.5196 21.3744 18.8788 21.093 19.39C20.5361 20.4014 19.23 20.7147 18.2749 20.0659C17.7922 19.738 17.1885 19.6423 16.6281 19.8047C15.5191 20.1261 14.374 19.4241 14.1574 18.29C14.048 17.7169 13.6888 17.2223 13.1776 16.9408C12.1662 16.3839 11.8529 15.0779 12.5017 14.1228C12.8296 13.64 12.9253 13.0364 12.7629 12.4759C12.4414 11.367 13.1435 10.2219 14.2776 10.0053C14.8507 9.89583 15.3453 9.53667 15.6268 9.02544Z" stroke="white" stroke-width="2"/>
<path d="M16.4324 14.6703L18.0257 15.647L19.9792 12.4606" stroke="white" stroke-width="2" stroke-linecap="round" stroke-linejoin="round"/>
<path d="M7.52392 10.5785C10.126 9.95436 11.7295 7.33887 11.1054 4.73676C10.4812 2.13461 7.86576 0.531144 5.26366 1.15529C2.66151 1.77944 1.05803 4.39487 1.68218 6.99702C2.30632 9.59913 4.92177 11.2027 7.52392 10.5785Z" stroke="white" stroke-width="2" stroke-linecap="round" stroke-linejoin="round"/>
</svg>
