<svg width="18" height="18" viewBox="0 0 18 18" fill="none" xmlns="http://www.w3.org/2000/svg">
<path d="M13.005 4.09536C12.827 4.09536 12.653 4.14814 12.505 4.24704C12.357 4.34593 12.2417 4.48649 12.1735 4.65094C12.1054 4.81539 12.0876 4.99635 12.1223 5.17094C12.1571 5.34552 12.2428 5.50588 12.3686 5.63175C12.4945 5.75761 12.6549 5.84333 12.8295 5.87806C13.004 5.91278 13.185 5.89496 13.3494 5.82684C13.5139 5.75872 13.6545 5.64337 13.7533 5.49537C13.8522 5.34736 13.905 5.17336 13.905 4.99536C13.905 4.75666 13.8102 4.52774 13.6414 4.35896C13.4726 4.19018 13.2437 4.09536 13.005 4.09536ZM16.455 5.91035C16.4404 5.28808 16.3239 4.67241 16.11 4.08786C15.9193 3.58771 15.6225 3.13482 15.24 2.76037C14.8686 2.37594 14.4147 2.081 13.9125 1.89787C13.3295 1.67749 12.7132 1.55828 12.09 1.54537C11.295 1.50037 11.04 1.50037 9.00005 1.50037C6.96006 1.50037 6.70506 1.50037 5.91007 1.54537C5.28694 1.55828 4.67058 1.67749 4.08758 1.89787C3.58634 2.08286 3.13279 2.37754 2.76009 2.76037C2.37566 3.13175 2.08072 3.58569 1.89759 4.08786C1.67721 4.67086 1.558 5.28722 1.54509 5.91035C1.50009 6.70535 1.50009 6.96034 1.50009 9.00033C1.50009 11.0403 1.50009 11.2953 1.54509 12.0903C1.558 12.7134 1.67721 13.3298 1.89759 13.9128C2.08072 14.415 2.37566 14.8689 2.76009 15.2403C3.13279 15.6231 3.58634 15.9178 4.08758 16.1028C4.67058 16.3232 5.28694 16.4424 5.91007 16.4553C6.70506 16.5003 6.96006 16.5003 9.00005 16.5003C11.04 16.5003 11.295 16.5003 12.09 16.4553C12.7132 16.4424 13.3295 16.3232 13.9125 16.1028C14.4147 15.9197 14.8686 15.6247 15.24 15.2403C15.6242 14.8672 15.9213 14.4139 16.11 13.9128C16.3239 13.3283 16.4404 12.7126 16.455 12.0903C16.455 11.2953 16.5 11.0403 16.5 9.00033C16.5 6.96034 16.5 6.70535 16.455 5.91035ZM15.105 12.0003C15.0996 12.4764 15.0133 12.9481 14.85 13.3953C14.7303 13.7217 14.5379 14.0166 14.2875 14.2578C14.0443 14.5057 13.7499 14.6976 13.425 14.8203C12.9778 14.9836 12.5061 15.0698 12.03 15.0753C11.28 15.1128 11.0025 15.1203 9.03005 15.1203C7.05756 15.1203 6.78006 15.1203 6.03007 15.0753C5.53574 15.0846 5.04352 15.0084 4.57508 14.8503C4.26441 14.7214 3.9836 14.5299 3.75008 14.2878C3.50115 14.0469 3.31122 13.7517 3.19508 13.4253C3.01198 12.9717 2.91042 12.4893 2.89509 12.0003C2.89509 11.2503 2.85009 10.9728 2.85009 9.00033C2.85009 7.02784 2.85009 6.75035 2.89509 6.00035C2.89845 5.51364 2.9873 5.03131 3.15758 4.57536C3.28962 4.25879 3.49228 3.9766 3.75008 3.75036C3.97794 3.49249 4.25954 3.28769 4.57508 3.15037C5.03224 2.9854 5.51407 2.89918 6.00007 2.89537C6.75006 2.89537 7.02756 2.85037 9.00005 2.85037C10.9725 2.85037 11.25 2.85037 12 2.89537C12.4761 2.90083 12.9478 2.98705 13.395 3.15037C13.7358 3.27685 14.0417 3.4825 14.2875 3.75036C14.5333 3.98074 14.7253 4.26241 14.85 4.57536C15.0167 5.03206 15.103 5.51419 15.105 6.00035C15.1425 6.75035 15.15 7.02784 15.15 9.00033C15.15 10.9728 15.1425 11.2503 15.105 12.0003ZM9.00005 5.15285C8.23941 5.15434 7.49628 5.38125 6.86456 5.80491C6.23283 6.22858 5.74085 6.82999 5.4508 7.53316C5.16074 8.23632 5.08562 9.00968 5.23492 9.75553C5.38422 10.5014 5.75125 11.1862 6.28962 11.7236C6.828 12.2609 7.51357 12.6266 8.2597 12.7744C9.00583 12.9223 9.77905 12.8456 10.4816 12.5542C11.1842 12.2628 11.7847 11.7696 12.2071 11.1371C12.6296 10.5045 12.855 9.76097 12.855 9.00033C12.856 8.49416 12.7569 7.99279 12.5635 7.52506C12.37 7.05732 12.086 6.63245 11.7277 6.27489C11.3694 5.91732 10.944 5.63411 10.4759 5.44155C10.0078 5.24899 9.50622 5.15088 9.00005 5.15285ZM9.00005 11.4978C8.5061 11.4978 8.02323 11.3513 7.61252 11.0769C7.20181 10.8025 6.8817 10.4124 6.69268 9.95608C6.50365 9.49972 6.45419 8.99756 6.55055 8.5131C6.64692 8.02863 6.88478 7.58362 7.23406 7.23434C7.58334 6.88506 8.02835 6.6472 8.51282 6.55084C8.99728 6.45447 9.49944 6.50393 9.9558 6.69296C10.4122 6.88199 10.8022 7.20209 11.0766 7.6128C11.3511 8.02351 11.4975 8.50638 11.4975 9.00033C11.4975 9.32831 11.4329 9.65307 11.3074 9.95608C11.1819 10.2591 10.998 10.5344 10.766 10.7663C10.5341 10.9982 10.2588 11.1822 9.9558 11.3077C9.65279 11.4332 9.32803 11.4978 9.00005 11.4978Z" fill="#313131"/>
</svg>
