<svg width="51" height="30" viewBox="0 0 51 30" fill="none" xmlns="http://www.w3.org/2000/svg">
<path d="M7 21.6V26.4" stroke="#F97316" stroke-width="2.6" stroke-linecap="round" stroke-linejoin="round"/>
<path d="M25.6733 16.8V7.2C25.6733 5.43269 27.3454 4 29.408 4H36.8773C38.94 4 40.612 5.43269 40.612 7.2V10.4" stroke="#F97316" stroke-width="2.6" stroke-linecap="round" stroke-linejoin="round"/>
<path d="M25.6734 16.8V7.2C25.6734 5.43269 24.0014 4 21.9387 4H14.4694C12.4068 4 10.7347 5.43269 10.7347 7.2V10.4" stroke="#F97316" stroke-width="2.6" stroke-linecap="round" stroke-linejoin="round"/>
<path d="M40.612 10.4C38.5494 10.4 36.8773 11.8327 36.8773 13.6V16.8H14.4693V13.6C14.4693 11.8327 12.7973 10.4 10.7347 10.4C8.67207 10.4 7 11.8327 7 13.6V23.2H44.3467V13.6C44.3467 11.8327 42.6747 10.4 40.612 10.4Z" stroke="#F97316" stroke-width="2.6" stroke-linecap="round" stroke-linejoin="round"/>
<path d="M44.3467 21.6V26.4" stroke="#F97316" stroke-width="2.6" stroke-linecap="round" stroke-linejoin="round"/>
</svg>
