<svg width="21" height="21" viewBox="0 0 21 21" fill="none" xmlns="http://www.w3.org/2000/svg">
<path d="M15.3414 17.2713H4.52456C4.23486 17.2713 4 17.0365 4 16.7468V8.17891C4 7.8892 4.23486 7.65434 4.52456 7.65434H6.94422C7.55842 7.65434 8.12758 7.33208 8.44358 6.80541L10.8132 2.85599C11.3246 2.00381 12.5289 1.9228 13.1497 2.69884C13.4423 3.06463 13.5367 3.55081 13.402 3.9995L12.5082 6.97904C12.4072 7.31561 12.6592 7.65434 13.0106 7.65434H17.0105C18.1634 7.65434 19.0008 8.75068 18.6974 9.86293L17.0283 15.9828C16.8209 16.7436 16.1299 17.2713 15.3414 17.2713Z" stroke="#F97316" stroke-width="1.4" stroke-linecap="round"/>
<path d="M7.05997 17.2713V7.6543" stroke="#F97316" stroke-width="1.4" stroke-linecap="round" stroke-linejoin="round"/>
</svg>
