<svg width="27" height="24" viewBox="0 0 27 24" fill="none" xmlns="http://www.w3.org/2000/svg">
<path d="M15.3209 2.83601C15.5631 3.51953 15.5258 4.27165 15.2157 4.92806C14.5023 6.43948 13.8393 7.98678 13.07 9.47232C12.8924 9.80921 12.4707 9.94865 12.128 9.78366L7.62765 7.61659C6.26735 6.96156 5.68952 5.3307 6.33399 3.96537C6.9848 2.58661 8.63387 2.00234 10.0075 2.66383L10.1711 2.74258L10.2485 2.5785C10.5605 1.91716 11.1237 1.40696 11.8141 1.16234C12.5047 0.917679 13.2634 0.959472 13.9221 1.27685C14.5763 1.5917 15.0788 2.15253 15.3209 2.83601Z" stroke="white" stroke-width="2" stroke-linejoin="round"/>
<path d="M23.1185 17.6236L25.9248 11.7374C26.0074 11.5642 26.0178 11.3654 25.9537 11.1846L23.8391 5.2163C23.5055 4.2748 22.4718 3.782 21.5304 4.11557C20.5889 4.44913 20.096 5.4828 20.4296 6.4243L22.2416 11.5385" stroke="white" stroke-width="2" stroke-linecap="round" stroke-linejoin="round"/>
<path d="M21.508 13.0776L22.1376 11.7569C22.2044 11.617 22.2127 11.4564 22.161 11.3105C22.0871 11.1019 21.9017 10.9531 21.6822 10.9259L21.0897 10.8526C20.0597 10.7251 19.0635 11.271 18.6168 12.2079L17.9601 13.5853C17.6849 14.1627 17.6502 14.8256 17.8638 15.4284L19.1409 19.0329" stroke="white" stroke-width="2" stroke-linecap="round" stroke-linejoin="round"/>
<path d="M9.48066 22.4555L3.59453 19.6492C3.42134 19.5666 3.28805 19.4186 3.22399 19.2378L1.10939 13.2696C0.775804 12.3281 1.26862 11.2944 2.21012 10.9608C3.15162 10.6273 4.18527 11.1201 4.51885 12.0616L6.33085 17.1758" stroke="white" stroke-width="2" stroke-linecap="round" stroke-linejoin="round"/>
<path d="M7.87004 17.9096L6.54926 17.2799C6.40942 17.2132 6.30181 17.0938 6.25011 16.9478C6.17622 16.7393 6.2265 16.507 6.37994 16.3476L6.79415 15.9176C7.51419 15.17 8.63182 14.9671 9.56873 15.4137L10.9461 16.0704C11.5234 16.3457 11.9677 16.839 12.1813 17.4418L13.4584 21.0462" stroke="white" stroke-width="2" stroke-linecap="round" stroke-linejoin="round"/>
</svg>
