<svg width="25" height="25" viewBox="0 0 25 25" fill="none" xmlns="http://www.w3.org/2000/svg">
<g clip-path="url(#clip0_0_347)">
<path fill-rule="evenodd" clip-rule="evenodd" d="M2.95134 11.4583C2.95134 6.18476 7.2264 1.9097 12.5 1.9097C17.7735 1.9097 22.0486 6.18476 22.0486 11.4583C22.0486 16.7319 17.7735 21.0069 12.5 21.0069C7.2264 21.0069 2.95134 16.7319 2.95134 11.4583ZM12.5 0.173587C6.26757 0.173587 1.21523 5.22593 1.21523 11.4583C1.21523 17.6907 6.26757 22.743 12.5 22.743C18.7323 22.743 23.7847 17.6907 23.7847 11.4583C23.7847 5.22593 18.7323 0.173587 12.5 0.173587ZM12.4272 15.3066L18.4579 9.05661L16.9587 7.61001L11.5779 13.1865L7.9309 10.3518L6.65237 11.9967L11.0383 15.4058L11.7773 15.9801L12.4272 15.3066Z" fill="#F73308"/>
</g>
<defs>
<clipPath id="clip0_0_347">
<rect width="24.3843" height="24.3843" fill="white" transform="scale(1.02525)"/>
</clipPath>
</defs>
</svg>
