<svg width="18" height="18" viewBox="0 0 18 18" fill="none" xmlns="http://www.w3.org/2000/svg">
<path d="M9.00007 11.2496C8.90137 11.2502 8.80352 11.2313 8.71214 11.1939C8.62077 11.1566 8.53765 11.1016 8.46757 11.0321L5.46759 8.03213C5.32636 7.8909 5.24702 7.69936 5.24702 7.49963C5.24702 7.29991 5.32636 7.10836 5.46759 6.96713C5.60882 6.82591 5.80036 6.74657 6.00009 6.74657C6.19981 6.74657 6.39136 6.82591 6.53258 6.96713L9.00007 9.44212L11.4676 6.97463C11.611 6.85176 11.7956 6.78756 11.9843 6.79485C12.1731 6.80214 12.3522 6.88039 12.4857 7.01396C12.6193 7.14753 12.6975 7.32658 12.7048 7.51534C12.7121 7.7041 12.6479 7.88865 12.5251 8.03213L9.52507 11.0321C9.38537 11.1707 9.19682 11.2488 9.00007 11.2496Z" fill="#999999"/>
</svg>
