<svg width="18" height="18" viewBox="0 0 18 18" fill="none" xmlns="http://www.w3.org/2000/svg">
<path d="M17.2968 3.85004C16.6851 4.12074 16.0312 4.30355 15.3421 4.38793C16.0453 3.96605 16.5867 3.29809 16.8398 2.50356C16.1824 2.89379 15.4546 3.17856 14.6777 3.32973C14.0554 2.66528 13.1695 2.25044 12.1922 2.25044C10.3113 2.25044 8.78906 3.77621 8.78906 5.65706C8.78906 5.92424 8.81718 6.1844 8.87695 6.43401C6.04688 6.29338 3.53674 4.93636 1.8598 2.8727C1.568 3.37543 1.39925 3.96254 1.39925 4.5848C1.39925 5.76604 2.00394 6.81018 2.918 7.42189C2.3555 7.40783 1.82816 7.25314 1.37113 6.9965V7.03869C1.37113 8.69103 2.54534 10.0656 4.10275 10.3785C3.81799 10.4559 3.51565 10.498 3.20627 10.498C2.98831 10.498 2.77386 10.477 2.56643 10.4348C2.99885 11.7883 4.25744 12.7726 5.74806 12.8008C4.58439 13.7148 3.11487 14.2597 1.51878 14.2597C1.24457 14.2597 0.973865 14.2422 0.706679 14.2105C2.20784 15.1879 3.99729 15.7504 5.91681 15.7504C12.1851 15.7504 15.6093 10.5578 15.6093 6.05432C15.6093 5.90667 15.6058 5.75901 15.5988 5.61487C16.2632 5.13323 16.8398 4.53558 17.2968 3.85004Z" fill="#313131"/>
</svg>
