<svg width="18" height="18" viewBox="0 0 18 18" fill="none" xmlns="http://www.w3.org/2000/svg">
<path d="M15.675 1.50037H2.32509C2.10629 1.50037 1.89645 1.58729 1.74173 1.74201C1.58701 1.89673 1.50009 2.10657 1.50009 2.32537V15.6753C1.50009 15.7836 1.52143 15.8909 1.56289 15.991C1.60435 16.0911 1.66512 16.182 1.74173 16.2587C1.81834 16.3353 1.90928 16.396 2.00938 16.4375C2.10947 16.479 2.21675 16.5003 2.32509 16.5003H9.51005V10.6878H7.56006V8.43784H9.51005V6.75035C9.46966 6.35417 9.51643 5.95394 9.64709 5.57775C9.77774 5.20156 9.98912 4.85851 10.2664 4.57267C10.5437 4.28682 10.8801 4.06509 11.2522 3.92304C11.6242 3.78099 12.0228 3.72205 12.42 3.75036C13.0038 3.74677 13.5872 3.77682 14.1675 3.84036V5.86535H12.975C12.03 5.86535 11.85 6.31535 11.85 6.96784V8.41534H14.1L13.8075 10.6653H11.85V16.5003H15.675C15.7834 16.5003 15.8906 16.479 15.9907 16.4375C16.0908 16.396 16.1818 16.3353 16.2584 16.2587C16.335 16.182 16.3958 16.0911 16.4372 15.991C16.4787 15.8909 16.5 15.7836 16.5 15.6753V2.32537C16.5 2.21703 16.4787 2.10975 16.4372 2.00966C16.3958 1.90956 16.335 1.81862 16.2584 1.74201C16.1818 1.6654 16.0908 1.60463 15.9907 1.56317C15.8906 1.52171 15.7834 1.50037 15.675 1.50037Z" fill="#313131"/>
</svg>
